<?xml version="1.0" standalone="no"?>
<!DOCTYPE svg PUBLIC "-//W3C//DTD SVG 20010904//EN"
 "http://www.w3.org/TR/2001/REC-SVG-20010904/DTD/svg10.dtd">
<svg xmlns="http://www.w3.org/2000/svg" width="616" height="616" viewBox="0 0 616.000000 616.000000" fill="none">
<circle cx="262" cy="256" r="250" fill="#F3A807" fill-opacity="0.996078"/>
    <path d="M518 -2.56334e-05L428.772 23.9087L494.091 89.2284L518 -2.56334e-05ZM11.6569 517.657L472.745 56.5685L461.431 45.2548L0.343145 506.343L11.6569 517.657Z" fill="black"/>
    <path d="M125.017 248V66.1818H188.582C201.248 66.1818 211.694 68.3717 219.921 72.7514C228.148 77.072 234.274 82.9017 238.298 90.2408C242.323 97.5206 244.335 105.599 244.335 114.477C244.335 122.29 242.944 128.741 240.163 133.831C237.44 138.921 233.83 142.946 229.332 145.905C224.893 148.864 220.069 151.054 214.861 152.474V154.25C220.424 154.605 226.017 156.558 231.64 160.109C237.263 163.661 241.968 168.75 245.756 175.379C249.544 182.008 251.438 190.116 251.438 199.705C251.438 208.819 249.366 217.016 245.223 224.296C241.08 231.576 234.54 237.347 225.603 241.608C216.666 245.869 205.036 248 190.713 248H125.017ZM147.034 228.469H190.713C205.095 228.469 215.305 225.687 221.342 220.124C227.438 214.501 230.486 207.695 230.486 199.705C230.486 193.549 228.917 187.867 225.781 182.659C222.644 177.392 218.175 173.189 212.375 170.053C206.575 166.857 199.709 165.259 191.778 165.259H147.034V228.469ZM147.034 146.082H187.872C194.501 146.082 200.479 144.78 205.805 142.176C211.191 139.572 215.453 135.902 218.589 131.168C221.786 126.433 223.384 120.869 223.384 114.477C223.384 106.487 220.602 99.7105 215.038 94.147C209.475 88.5244 200.656 85.7131 188.582 85.7131H147.034V146.082Z" fill="black"/>
    <path d="M296.017 432V250.182H357.452C371.656 250.182 383.316 252.608 392.43 257.462C401.545 262.256 408.292 268.855 412.672 277.259C417.052 285.664 419.241 295.222 419.241 305.935C419.241 316.647 417.052 326.147 412.672 334.433C408.292 342.719 401.575 349.229 392.519 353.964C383.464 358.639 371.893 360.977 357.807 360.977H308.091V341.091H357.097C366.803 341.091 374.616 339.67 380.534 336.83C386.512 333.989 390.832 329.964 393.496 324.756C396.218 319.488 397.58 313.214 397.58 305.935C397.58 298.655 396.218 292.292 393.496 286.847C390.773 281.402 386.423 277.2 380.445 274.241C374.468 271.222 366.566 269.713 356.741 269.713H318.034V432H296.017ZM381.599 350.324L426.344 432H400.776L356.741 350.324H381.599Z" fill="black"/>
</svg>

